HIERARCHY
ROOT pelvis
{
  OFFSET 0 100 0
  CHANNELS 6 Xposition Yposition Zposition Zrotation Xrotation Yrotation
  JOINT pelvis_right_femur
  {
    OFFSET -10.78128 -3.44521 -0.5502486
    CHANNELS 3 Zrotation Xrotation Yrotation
    JOINT right_femur_tibia
    {
      OFFSET -0.8047443 -44.0398 -0.1307829
      CHANNELS 3 Zrotation Xrotation Yrotation
      JOINT right_tibia_foot
      {
        OFFSET 3.006224 -47.83518 -5
        CHANNELS 3 Zrotation Xrotation Yrotation
        End Site
        {
          OFFSET 0 -5 15
        }
      }
    }
  }
  JOINT pelvis_left_femur
  {
    OFFSET 10.78128 -3.44521 -0.5502486
    CHANNELS 3 Zrotation Xrotation Yrotation
    JOINT left_femur_tibia
    {
      OFFSET 0.8047443 -44.0398 -0.1307829
      CHANNELS 3 Zrotation Xrotation Yrotation
      JOINT left_tibia_foot
      {
        OFFSET -4.370144 -48.10324 -4.275266
        CHANNELS 3 Zrotation Xrotation Yrotation
        End Site
        {
          OFFSET 0 -5 15
        }
      }
    }
  }
  JOINT pelvis_spine1
  {
    OFFSET 0 6.468898 -3.129235
    CHANNELS 3 Zrotation Xrotation Yrotation
    JOINT spine1
    {
      OFFSET 0 23.15396 4.99043
      CHANNELS 3 Zrotation Xrotation Yrotation
      JOINT spine2
      {
        OFFSET 0 20.79997 -5.064912
        CHANNELS 3 Zrotation Xrotation Yrotation
        JOINT neck
        {
          OFFSET 0 14.38658 9.616178
          CHANNELS 3 Zrotation Xrotation Yrotation
          End Site
          {
            OFFSET 0 20 0
          }
        }
      }
      JOINT right_manubrium
      {
        OFFSET -5.722621 16.35077 3.967754
        CHANNELS 3 Zrotation Xrotation Yrotation
        JOINT right_clavicle
        {
          OFFSET -13.16364 1.694482 -4.693211
          CHANNELS 3 Zrotation Xrotation Yrotation
          JOINT right_humerus
          {
            OFFSET -28.5034 -0.3100689 -2.792744
            CHANNELS 3 Zrotation Xrotation Yrotation
            JOINT right_radius
            {
              OFFSET -25.15693 0.02248979 -1.271978
              CHANNELS 3 Zrotation Xrotation Yrotation
              End Site
              {
                OFFSET -15 0 0
              }
            }
          }
        }
      }
      JOINT left_manubrium
      {
        OFFSET 5.722621 16.35077 3.967754
        CHANNELS 3 Zrotation Xrotation Yrotation
        JOINT left_clavicle
        {
          OFFSET 13.16364 1.694482 -4.693211
          CHANNELS 3 Zrotation Xrotation Yrotation
          JOINT left_humerus
          {
            OFFSET 29.39168 -1.063119 -2.237045
            CHANNELS 3 Zrotation Xrotation Yrotation
            JOINT left_radius
            {
              OFFSET 24.59957 -0.9528479 0.9047498
              CHANNELS 3 Zrotation Xrotation Yrotation
              End Site
              {
                OFFSET 15 -0 -0
              }
            }
          }
        }
      }
    }
  }
}
MOTION
Frames: 23
Frame Time: 0.0416666666667
-1046.542 125.5129 -323.6165 12.67969 6.4291 117.4339 5.000774 2.722992 -7.319116 -0 11.76675 -0 -16.17256 -2.16598 -0.6068169 0.6379988 -0.3664862 -5.319959 -0 16.69656 -0 5.597884 -6.316134 18.03523 0.864887 -3.541469 3.731346 -0.7021511 15.82201 -5.245204 2.451937 24.13096 1.6405 1.380765 -15.83695 4.690385 -7.926794 -25.71212 10.68877 97.09557 7.659061 -13.39777 -0 0 16.60195 -24.38527 9.439003 10.19615 5.677319 -26.48001 -10.51257 -90.04137 6.10324 20.63392 0 0 -6.783461 22.57213 17.80356 -17.73164
-1041.058 125.4688 -326.807 12.73759 6.312178 116.9121 5.000709 2.722687 -7.319204 -0 11.76677 -0 -16.17255 -2.16572 -0.606783 0.6379222 -0.3661721 -5.319958 -0 16.69649 -0 5.59791 -6.316278 18.03522 0.8648642 -3.541452 3.73129 -0.7021553 15.822 -5.245209 2.451941 24.13098 1.640528 1.380784 -15.83693 4.690402 -7.926811 -25.71201 10.68876 97.09564 7.659016 -13.39783 -0 0 16.60175 -24.38533 9.438959 10.19615 5.677373 -26.48006 -10.51258 -90.04126 6.103143 20.63365 0 0 -6.783616 22.57229 17.80349 -17.73184
-1035.544 125.4247 -329.9464 12.79441 6.194742 116.3906 5.000661 2.722355 -7.319291 -0 11.76675 -0 -16.17254 -2.165474 -0.6067564 0.6378492 -0.3658486 -5.319945 -0 16.69652 -0 5.597948 -6.316408 18.0352 0.8648511 -3.541441 3.731242 -0.7021566 15.822 -5.245224 2.451942 24.131 1.64055 1.380798 -15.83692 4.690413 -7.926837 -25.71192 10.68876 97.09572 7.658942 -13.39793 -0 0 16.60155 -24.38538 9.438925 10.19613 5.677423 -26.48012 -10.51261 -90.04115 6.103025 20.63339 0 0 -6.783795 22.57248 17.80342 -17.73208
-1030.001 125.3806 -333.0346 12.85015 6.076797 115.8693 5.000632 2.722022 -7.319372 -0 11.7667 -0 -16.17254 -2.165258 -0.6067389 0.6377853 -0.365541 -5.319923 -0 16.69666 -0 5.597994 -6.316515 18.03517 0.8648482 -3.541439 3.731205 -0.7021551 15.82202 -5.245248 2.451941 24.13101 1.640564 1.380807 -15.8369 4.690419 -7.926872 -25.71184 10.68877 97.09582 7.658848 -13.39804 -0 0 16.60136 -24.38543 9.438903 10.1961 5.677464 -26.48021 -10.51265 -90.04105 6.102897 20.63316 0 0 -6.783986 22.57267 17.80336 -17.73232
-1024.43 125.3365 -336.0712 12.9048 5.958352 115.3482 5.000624 2.721713 -7.319441 -0 11.76663 -0 -16.17255 -2.165088 -0.6067314 0.637735 -0.3652724 -5.319894 -0 16.69687 -0 5.598044 -6.316592 18.03513 0.8648554 -3.541445 3.73118 -0.7021509 15.82206 -5.245278 2.451937 24.13102 1.640571 1.380811 -15.8369 4.690419 -7.926911 -25.7118 10.68877 97.09593 7.658741 -13.39816 -0 0 16.60121 -24.38546 9.438895 10.19605 5.677494 -26.4803 -10.5127 -90.04096 6.102768 20.63297 0 0 -6.784171 22.57285 17.80331 -17.73255
-1018.831 125.2924 -339.0559 12.95836 5.839413 114.8274 5.000636 2.721452 -7.319493 -0 11.76654 -0 -16.17256 -2.164976 -0.6067341 0.6377017 -0.365062 -5.31986 -0 16.69715 -0 5.598094 -6.316633 18.03509 0.8648717 -3.541458 3.73117 -0.7021446 15.82211 -5.245313 2.451931 24.13102 1.64057 1.380809 -15.8369 4.690413 -7.926951 -25.71178 10.68879 97.09604 7.65863 -13.39828 -0 0 16.60111 -24.38547 9.4389 10.19599 5.677511 -26.4804 -10.51275 -90.04089 6.102649 20.63285 0 0 -6.784338 22.57301 17.80327 -17.73275
-1013.205 125.2483 -341.9886 13.01082 5.71999 114.3068 5.000667 2.721258 -7.319524 -0 11.76643 -0 -16.17257 -2.164928 -0.6067463 0.6376873 -0.3649236 -5.319823 -0 16.69747 -0 5.598141 -6.316637 18.03505 0.8648954 -3.541476 3.731174 -0.7021367 15.82216 -5.245349 2.451924 24.13101 1.640561 1.380801 -15.8369 4.690402 -7.926989 -25.71179 10.6888 97.09613 7.658524 -13.39839 -0 0 16.60105 -24.38547 9.438917 10.19592 5.677513 -26.48049 -10.51281 -90.04086 6.102548 20.63279 0 0 -6.784474 22.57313 17.80325 -17.73291
-1007.551 125.2042 -344.869 13.06218 5.600091 113.7863 5.000713 2.721141 -7.319533 -0 11.76632 -0 -16.17259 -2.164944 -0.6067667 0.6376919 -0.3648648 -5.319788 -0 16.6978 -0 5.59818 -6.316606 18.03501 0.8649243 -3.541499 3.731192 -0.7021278 15.82222 -5.245383 2.451915 24.131 1.640546 1.380789 -15.8369 4.690387 -7.927023 -25.71182 10.68882 97.09621 7.658432 -13.39849 -0 0 16.60104 -24.38546 9.438945 10.19586 5.677503 -26.48057 -10.51286 -90.04085 6.102473 20.63279 0 0 -6.78457 22.57321 17.80324 -17.73302
-1001.872 125.1601 -347.6968 13.11242 5.479725 113.2661 5.000771 2.721108 -7.319521 -0 11.76622 -0 -16.1726 -2.165022 -0.6067934 0.6377145 -0.3648867 -5.319757 -0 16.69812 -0 5.59821 -6.316544 18.03497 0.8649561 -3.541524 3.731222 -0.7021188 15.82228 -5.245413 2.451907 24.13098 1.640525 1.380774 -15.83691 4.69037 -7.927049 -25.71188 10.68884 97.09627 7.658358 -13.39856 -0 0 16.60108 -24.38543 9.438981 10.19581 5.67748 -26.48063 -10.51291 -90.04086 6.102427 20.63286 0 0 -6.78462 22.57325 17.80325 -17.73307
-996.1657 125.116 -350.4717 13.16155 5.358902 112.7462 5.000835 2.721158 -7.319488 -0 11.76613 -0 -16.17262 -2.165151 -0.6068239 0.6377526 -0.3649842 -5.319731 -0 16.6984 -0 5.598227 -6.316456 18.03495 0.8649881 -3.541549 3.731261 -0.7021103 15.82233 -5.245437 2.451899 24.13097 1.640501 1.380757 -15.83692 4.690352 -7.927067 -25.71195 10.68885 97.0963 7.658309 -13.3986 -0 0 16.60117 -24.38539 9.439022 10.19576 5.677447 -26.48067 -10.51294 -90.04091 6.102415 20.63299 0 0 -6.784622 22.57324 17.80328 -17.73306
-990.4344 125.0719 -353.1936 13.20957 5.237633 112.2264 5.0009 2.721283 -7.319439 -0 11.76607 -0 -16.17263 -2.16532 -0.6068559 0.6378024 -0.3651466 -5.319713 -0 16.69863 -0 5.598232 -6.31635 18.03493 0.8650178 -3.541572 3.731305 -0.7021029 15.82237 -5.245452 2.451892 24.13095 1.640476 1.380738 -15.83694 4.690333 -7.927074 -25.71204 10.68887 97.0963 7.658288 -13.39861 -0 0 16.60129 -24.38535 9.439065 10.19573 5.677408 -26.48069 -10.51296 -90.04097 6.102434 20.63316 0 0 -6.784579 22.57319 17.80332 -17.73299
-984.6781 125.0279 -355.8622 13.25645 5.11593 111.7068 5.000961 2.721471 -7.319378 -0 11.76602 -0 -16.17264 -2.165514 -0.6068867 0.6378598 -0.3653583 -5.319704 -0 16.69878 -0 5.598225 -6.316236 18.03493 0.865043 -3.541592 3.73135 -0.7020972 15.8224 -5.245459 2.451887 24.13093 1.640452 1.380721 -15.83695 4.690317 -7.927072 -25.71213 10.68888 97.09628 7.658294 -13.39859 -0 0 16.60144 -24.3853 9.439105 10.19571 5.677365 -26.48068 -10.51297 -90.04105 6.102482 20.63336 0 0 -6.784495 22.57309 17.80337 -17.73287
-978.8973 124.9838 -358.4772 13.30222 4.993804 111.1874 5.001014 2.721704 -7.319311 -0 11.766 -0 -16.17265 -2.165717 -0.6069141 0.6379198 -0.3656011 -5.319704 -0 16.69885 -0 5.598206 -6.316122 18.03493 0.8650621 -3.541607 3.731394 -0.7020936 15.82241 -5.245457 2.451884 24.13091 1.640429 1.380706 -15.83697 4.690304 -7.92706 -25.71221 10.68888 97.09623 7.658325 -13.39854 -0 0 16.6016 -24.38525 9.439141 10.19571 5.677322 -26.48065 -10.51297 -90.04113 6.102555 20.63357 0 0 -6.784378 22.57297 17.80342 -17.73272
-973.0925 124.9398 -361.0386 13.34685 4.871267 110.6681 5.001054 2.721962 -7.319242 -0 11.76601 -0 -16.17266 -2.165913 -0.606936 0.6379778 -0.3658546 -5.319712 -0 16.69883 -0 5.598178 -6.316018 18.03495 0.8650737 -3.541616 3.731433 -0.7020922 15.82241 -5.245447 2.451882 24.13089 1.640412 1.380694 -15.83698 4.690294 -7.92704 -25.71229 10.68889 97.09616 7.65838 -13.39847 -0 0 16.60176 -24.3852 9.439169 10.19572 5.677282 -26.4806 -10.51295 -90.04122 6.102645 20.63378 0 0 -6.78424 22.57283 17.80348 -17.73254
-967.2642 124.8957 -363.5459 13.39035 4.748332 110.1491 5.00108 2.722225 -7.319177 -0 11.76605 -0 -16.17266 -2.166087 -0.6069509 0.6380293 -0.3660989 -5.319728 -0 16.69874 -0 5.598143 -6.31593 18.03497 0.8650772 -3.541619 3.731464 -0.702093 15.82239 -5.245429 2.451883 24.13088 1.640399 1.380686 -15.83699 4.690289 -7.927014 -25.71235 10.68888 97.09609 7.658451 -13.39839 -0 0 16.60191 -24.38517 9.439187 10.19575 5.677248 -26.48054 -10.51292 -90.04131 6.102745 20.63396 0 0 -6.784092 22.57268 17.80353 -17.73235
-961.4129 124.8516 -365.9991 13.43273 4.625011 109.6303 5.001089 2.722471 -7.319121 -0 11.7661 -0 -16.17265 -2.166227 -0.6069581 0.6380706 -0.3663154 -5.319751 -0 16.69858 -0 5.598104 -6.315866 18.035 0.8650729 -3.541615 3.731485 -0.7020959 15.82236 -5.245406 2.451886 24.13088 1.640393 1.380682 -15.83699 4.690288 -7.926984 -25.71239 10.68888 97.096 7.658534 -13.39829 -0 0 16.60203 -24.38514 9.439196 10.19578 5.677224 -26.48046 -10.51288 -90.04138 6.102846 20.63412 0 0 -6.783945 22.57254 17.80357 -17.73217
-955.539 124.8075 -368.3978 13.47397 4.501315 109.1116 5.001082 2.722682 -7.319078 -0 11.76617 -0 -16.17265 -2.166322 -0.6069573 0.638099 -0.3664885 -5.319777 -0 16.69837 -0 5.598064 -6.315829 18.03503 0.8650612 -3.541606 3.731495 -0.7021006 15.82233 -5.245379 2.45189 24.13087 1.640392 1.380683 -15.83699 4.690292 -7.926953 -25.71241 10.68887 97.09592 7.658621 -13.3982 -0 0 16.60212 -24.38512 9.439194 10.19583 5.677209 -26.48039 -10.51284 -90.04143 6.102941 20.63422 0 0 -6.783811 22.57241 17.8036 -17.732
-949.6432 124.7634 -370.742 13.51407 4.377257 108.5931 5.00106 2.722844 -7.319051 -0 11.76625 -0 -16.17264 -2.166369 -0.6069489 0.6381128 -0.3666068 -5.319805 -0 16.69813 -0 5.598027 -6.315821 18.03507 0.8650435 -3.541592 3.731493 -0.7021067 15.82229 -5.245351 2.451896 24.13088 1.640398 1.380689 -15.83699 4.6903 -7.926922 -25.71241 10.68886 97.09584 7.658704 -13.39811 -0 0 16.60217 -24.38512 9.439181 10.19588 5.677205 -26.48032 -10.51279 -90.04146 6.103023 20.63428 0 0 -6.7837 22.5723 17.80362 -17.73187
-943.7259 124.7194 -373.0314 13.55305 4.252847 108.0748 5.001025 2.722946 -7.319041 -0 11.76634 -0 -16.17263 -2.166364 -0.6069339 0.6381116 -0.3666634 -5.319833 -0 16.69787 -0 5.597995 -6.315841 18.0351 0.8650214 -3.541575 3.731481 -0.7021135 15.82224 -5.245324 2.451902 24.13089 1.64041 1.380697 -15.83699 4.690311 -7.926895 -25.71238 10.68884 97.09578 7.658779 -13.39803 -0 0 16.60218 -24.38513 9.439161 10.19593 5.677211 -26.48025 -10.51275 -90.04147 6.103085 20.63428 0 0 -6.783619 22.57223 17.80363 -17.73178
-937.7876 124.6753 -375.2658 13.59089 4.128096 107.5566 5.000981 2.722983 -7.319048 -0 11.76642 -0 -16.17261 -2.166311 -0.6069137 0.6380961 -0.3666565 -5.319858 -0 16.69761 -0 5.597971 -6.315886 18.03512 0.8649968 -3.541555 3.731459 -0.7021206 15.8222 -5.2453 2.451909 24.1309 1.640425 1.380709 -15.83698 4.690324 -7.926874 -25.71234 10.68883 97.09573 7.658839 -13.39797 -0 0 16.60215 -24.38515 9.439133 10.19597 5.677228 -26.4802 -10.51272 -90.04146 6.103125 20.63424 0 0 -6.783574 22.5722 17.80362 -17.73173
-931.8288 124.6312 -377.445 13.6276 4.003015 107.0387 5.000931 2.722954 -7.319071 -0 11.76649 -0 -16.1726 -2.166216 -0.6068902 0.6380681 -0.3665895 -5.319879 -0 16.69739 -0 5.597955 -6.315952 18.03515 0.8649716 -3.541536 3.73143 -0.7021274 15.82216 -5.245281 2.451915 24.13091 1.640444 1.380723 -15.83697 4.690339 -7.926859 -25.71228 10.68882 97.0957 7.658881 -13.39794 -0 0 16.60209 -24.38518 9.439102 10.19601 5.677252 -26.48017 -10.51269 -90.04143 6.103139 20.63414 0 0 -6.783566 22.5722 17.8036 -17.73173
-925.85 124.587 -379.5688 13.66317 3.877614 106.5208 5.00088 2.722865 -7.319107 -0 11.76655 -0 -16.17259 -2.166088 -0.6068652 0.6380304 -0.36647 -5.319894 -0 16.6972 -0 5.59795 -6.316033 18.03516 0.8649479 -3.541517 3.731396 -0.7021333 15.82212 -5.245267 2.451921 24.13093 1.640463 1.380737 -15.83696 4.690353 -7.926851 -25.71222 10.6888 97.0957 7.658902 -13.39792 -0 0 16.602 -24.38522 9.439069 10.19604 5.677282 -26.48015 -10.51267 -90.04139 6.103128 20.63401 0 0 -6.783594 22.57224 17.80357 -17.73178
-919.8517 124.5429 -381.6371 13.6976 3.7519 106.0032 5.000832 2.722725 -7.319154 -0 11.76658 -0 -16.17258 -2.165938 -0.6068408 0.6379862 -0.3663096 -5.319903 -0 16.69708 -0 5.597954 -6.316122 18.03516 0.8649275 -3.541501 3.73136 -0.702138 15.8221 -5.24526 2.451925 24.13094 1.640483 1.380751 -15.83695 4.690366 -7.926852 -25.71215 10.6888 97.09571 7.658901 -13.39794 -0 0 16.60189 -24.38526 9.439036 10.19605 5.677316 -26.48015 -10.51266 -90.04133 6.103094 20.63386 0 0 -6.783655 22.57231 17.80353 -17.73186
